<?xml version="1.0" standalone="no"?>
<!DOCTYPE svg PUBLIC "-//W3C//DTD SVG 20010904//EN"
 "http://www.w3.org/TR/2001/REC-SVG-20010904/DTD/svg10.dtd">
<svg version="1.0" xmlns="http://www.w3.org/2000/svg"
 width="2084.000000pt" height="799.000000pt" viewBox="0 0 2084.000000 799.000000"
 preserveAspectRatio="xMidYMid meet">

<g transform="translate(0.000000,799.000000) scale(0.100000,-0.100000)"
fill="#000000" stroke="none">
<path d="M2945 7416 c-262 -52 -506 -197 -669 -398 -25 -31 -46 -60 -46 -63 0
-4 -13 -25 -28 -48 -45 -67 -73 -136 -73 -181 0 -61 -16 -93 -63 -120 -149
-88 -259 -261 -323 -506 -46 -181 -57 -272 -57 -500 -1 -260 16 -375 84 -560
l38 -105 11 -570 c10 -593 12 -613 60 -795 35 -130 135 -354 203 -454 93 -136
210 -262 318 -344 90 -69 88 -68 225 -136 61 -31 115 -60 121 -65 7 -5 28 -13
48 -16 20 -4 36 -11 36 -15 0 -4 28 -13 63 -20 34 -7 67 -17 72 -21 6 -4 35
-11 65 -15 30 -4 60 -10 65 -14 19 -14 211 -32 340 -32 134 0 305 16 334 31 9
5 41 11 71 15 30 4 60 12 67 18 7 6 22 8 33 5 11 -3 20 -2 20 3 0 4 16 11 36
15 20 3 44 10 53 15 9 4 77 37 151 74 225 109 373 232 522 433 21 29 38 54 38
57 0 2 16 28 35 57 42 64 84 150 120 244 14 39 30 79 35 90 31 70 70 311 75
470 10 306 12 872 4 934 -8 56 -7 67 9 85 21 24 72 136 72 158 0 8 4 18 8 24
13 14 50 167 67 276 22 141 20 389 -4 525 -41 234 -154 478 -277 595 -47 45
-52 59 -30 77 29 24 83 129 105 205 21 70 23 93 18 187 -5 98 -9 115 -44 191
-47 98 -111 163 -192 192 -42 15 -71 18 -144 14 -87 -5 -122 -15 -202 -55 -16
-9 -77 -31 -135 -51 -100 -33 -112 -35 -240 -35 -107 0 -154 4 -225 22 -49 13
-124 31 -165 41 -41 11 -120 31 -175 45 -84 22 -129 26 -280 30 -128 3 -200 1
-250 -9z m-310 -1164 c63 -40 188 -102 207 -102 9 0 19 -4 22 -9 3 -5 30 -15
58 -21 29 -7 58 -16 63 -20 6 -5 33 -11 60 -15 28 -3 59 -10 70 -15 11 -5 99
-15 195 -24 346 -30 650 17 871 135 20 10 48 25 61 32 13 6 38 23 56 36 18 13
34 22 36 20 1 -2 15 -26 31 -53 16 -28 102 -122 201 -220 171 -169 213 -224
229 -298 4 -18 11 -39 16 -48 21 -37 80 -293 120 -518 17 -94 39 -167 54 -178
9 -7 11 -14 5 -20 -12 -12 -37 -127 -50 -224 -5 -36 -9 -154 -9 -262 -1 -109
-5 -228 -11 -265 -5 -38 -16 -115 -24 -173 -14 -107 -29 -179 -45 -215 -5 -11
-15 -36 -22 -55 -7 -19 -15 -37 -19 -40 -3 -3 -11 -16 -18 -30 -41 -81 -70
-109 -194 -185 -129 -80 -237 -112 -289 -85 -20 11 -58 80 -78 142 -34 105
-119 227 -159 228 -7 0 -15 6 -18 14 -3 8 -19 18 -35 21 -16 4 -29 10 -29 15
0 5 -15 12 -32 15 -18 4 -37 11 -43 15 -14 11 -133 30 -186 30 -52 0 -89 9
-89 21 0 5 8 9 17 9 20 0 53 28 53 45 0 7 7 18 15 25 26 21 18 47 -16 54 -17
3 -162 6 -321 6 l-290 0 7 -27 c3 -16 11 -29 16 -31 5 -2 9 -10 9 -17 0 -8 16
-27 35 -42 42 -33 32 -43 -47 -43 -56 0 -144 -14 -183 -29 -76 -29 -179 -88
-215 -124 -41 -42 -82 -115 -96 -172 -4 -16 -13 -39 -20 -50 -8 -11 -14 -26
-14 -34 0 -8 -14 -30 -32 -48 -37 -38 -77 -43 -149 -18 -43 16 -130 56 -139
65 -3 3 -32 23 -65 44 -78 51 -129 107 -165 181 -87 181 -118 377 -120 765 -1
113 -5 225 -10 250 -32 170 -32 170 -11 203 16 27 19 45 14 117 -6 109 29 407
56 475 5 11 19 58 31 105 23 88 34 116 78 210 51 108 217 325 349 458 l83 84
43 -42 c23 -24 60 -54 82 -68z m918 -2259 c-7 -2 -19 -2 -25 0 -7 3 -2 5 12 5
14 0 19 -2 13 -5z m-363 -13 c0 -12 -8 -12 -35 0 -18 8 -17 9 8 9 15 1 27 -3
27 -9z m510 -11 c-7 -11 -14 -18 -17 -15 -3 3 0 12 7 21 18 21 23 19 10 -6z
m-76 -71 c-6 -9 -44 -6 -44 3 0 4 11 6 24 5 13 0 22 -4 20 -8z m-183 -238 c40
-22 120 -32 289 -39 173 -6 175 -6 219 -36 57 -39 96 -94 126 -180 29 -84 33
-184 9 -236 -37 -79 -59 -119 -66 -119 -5 0 -8 -6 -8 -13 0 -20 -129 -141
-175 -164 -87 -44 -139 -37 -212 26 -62 55 -97 71 -170 78 -97 9 -181 -26
-268 -114 -22 -22 -113 -21 -161 2 -20 9 -71 50 -113 90 -71 68 -91 97 -153
227 -11 24 -10 174 1 196 5 9 20 40 32 67 41 92 101 151 169 168 14 3 94 7
178 8 83 0 155 5 158 10 3 5 20 9 37 9 18 1 43 7 57 15 31 17 27 17 51 5z"/>
<path d="M2565 5391 c-98 -28 -164 -68 -240 -146 -116 -118 -178 -276 -131
-340 13 -18 15 -16 41 26 46 72 154 178 242 235 45 30 85 54 89 54 4 0 25 9
48 19 83 39 151 54 281 60 120 6 130 8 133 26 2 17 -9 24 -70 43 -149 46 -287
54 -393 23z"/>
<path d="M3995 5396 c-27 -8 -66 -17 -85 -20 -47 -8 -101 -42 -94 -59 4 -11
38 -16 137 -20 148 -7 244 -31 344 -87 32 -18 72 -40 88 -48 42 -22 196 -178
230 -232 l28 -45 15 35 c18 44 12 88 -24 173 -23 54 -46 87 -109 150 -86 87
-154 130 -240 148 -80 18 -234 20 -290 5z"/>
<path d="M2615 4713 c-45 -23 -65 -44 -81 -82 -69 -165 107 -312 257 -216 51
33 72 83 67 161 -3 54 -9 69 -33 95 -55 58 -146 76 -210 42z"/>
<path d="M4069 4707 c-18 -12 -44 -37 -56 -56 -88 -131 34 -302 187 -262 115
30 165 154 105 258 -47 80 -163 109 -236 60z"/>
<path d="M2906 3551 c-15 -16 -16 -30 -11 -78 4 -32 13 -69 20 -83 6 -14 22
-47 36 -74 26 -54 107 -156 124 -156 6 0 18 -9 28 -20 9 -11 31 -23 47 -27 17
-3 30 -11 30 -17 0 -6 5 -4 10 4 8 13 10 13 10 -2 0 -17 34 -34 58 -30 6 2 12
-2 12 -8 0 -5 11 -10 24 -10 14 0 27 -4 30 -9 7 -11 185 -11 206 0 27 14 55
22 67 20 33 -5 159 77 228 148 91 94 163 302 120 344 -9 10 -27 17 -39 17 -18
0 -25 -9 -35 -39 -12 -41 -57 -87 -94 -96 -12 -3 -174 -5 -360 -3 l-339 3 -34
38 c-19 20 -37 51 -41 67 -5 27 -9 30 -43 30 -24 0 -43 -7 -54 -19z"/>
<path d="M6505 5230 c-101 -21 -162 -66 -202 -148 l-28 -57 -3 -331 -3 -331
23 -27 c18 -21 76 -44 293 -114 l270 -88 3 -166 c2 -161 2 -167 -21 -193 -22
-26 -27 -27 -121 -28 -136 0 -139 3 -146 166 l-5 122 -145 0 -145 0 0 -185 c0
-173 2 -189 24 -238 27 -59 74 -105 140 -136 43 -19 63 -21 276 -21 221 0 232
1 283 24 31 14 69 43 92 69 66 74 70 102 70 462 0 308 -1 317 -21 336 -11 10
-143 60 -292 109 l-272 90 -3 145 c-5 242 0 250 143 250 88 0 98 -2 120 -25
24 -23 25 -30 25 -138 0 -74 4 -117 12 -125 14 -14 255 -17 276 -3 11 6 13 48
10 197 -3 188 -3 189 -33 244 -33 60 -95 113 -153 131 -45 14 -410 21 -467 9z"/>
<path d="M12962 5232 c-10 -7 -12 -192 -10 -893 l3 -884 145 0 145 0 5 490 c3
270 8 485 12 479 4 -6 82 -220 173 -474 92 -255 171 -472 176 -482 9 -16 24
-18 134 -18 68 0 130 3 139 6 14 6 16 93 16 883 0 669 -3 880 -12 889 -13 13
-242 18 -272 6 -14 -5 -16 -58 -16 -490 0 -266 -4 -484 -9 -484 -4 0 -84 213
-176 473 -93 259 -175 480 -183 490 -13 14 -33 17 -136 17 -67 0 -127 -4 -134
-8z"/>
<path d="M7395 4998 c-3 -7 -4 -357 -3 -778 l3 -765 134 -3 c90 -2 138 1 147
9 11 9 14 68 14 315 l0 304 145 0 145 0 2 -312 3 -313 125 -3 c69 -1 135 0
148 3 l22 5 -2 773 -3 772 -145 0 -145 0 -3 -312 -2 -313 -145 0 -145 0 -2
313 -3 312 -143 3 c-108 2 -144 0 -147 -10z"/>
<path d="M8830 4970 c-64 -238 -370 -1497 -366 -1507 4 -10 36 -13 135 -13
114 0 131 2 139 18 5 9 24 79 43 155 l33 137 211 0 211 0 40 -152 39 -153 135
0 c128 0 135 1 137 20 1 11 -82 360 -185 775 l-188 755 -186 3 -187 2 -11 -40z
m264 -638 c36 -156 66 -290 66 -298 0 -11 -25 -14 -135 -14 -105 0 -135 3
-135 13 0 7 29 140 65 295 36 155 65 284 65 288 0 27 16 -35 74 -284z"/>
<path d="M9776 4995 c-3 -9 -6 -355 -6 -770 0 -630 2 -754 14 -764 9 -8 56
-11 142 -9 l129 3 3 233 2 233 101 -3 101 -3 54 -219 c30 -121 60 -226 66
-233 15 -19 266 -19 274 0 2 7 -22 123 -55 257 l-59 245 42 45 c76 81 81 109
81 460 0 265 -2 312 -18 355 -23 67 -63 114 -128 150 l-54 30 -341 3 c-308 3
-342 1 -348 -13z m574 -293 c27 -33 33 -88 29 -277 l-4 -167 -28 -24 c-27 -23
-35 -24 -158 -24 l-129 0 0 253 c0 140 3 257 8 261 4 4 65 6 135 4 120 -3 130
-5 147 -26z"/>
<path d="M10896 4994 c-3 -9 -6 -354 -6 -768 0 -572 3 -755 12 -764 17 -17
249 -17 266 0 9 9 12 125 12 460 0 408 5 493 24 431 6 -20 206 -863 206 -868
0 -2 7 -11 16 -19 11 -12 36 -16 94 -16 43 0 85 3 94 6 21 8 23 16 131 474 53
223 98 413 101 423 19 63 24 -23 24 -431 0 -335 3 -451 12 -460 18 -18 252
-17 267 2 8 9 10 221 9 777 l-3 764 -183 3 c-181 2 -182 2 -192 -20 -5 -13
-64 -241 -130 -507 -66 -267 -122 -486 -123 -488 -2 -1 -56 212 -121 475 -65
262 -125 492 -132 510 l-13 32 -179 0 c-155 0 -181 -2 -186 -16z"/>
<path d="M14306 4993 c-64 -22 -137 -93 -161 -158 -17 -46 -19 -91 -23 -545
-4 -517 2 -619 37 -688 33 -65 89 -111 163 -133 61 -19 88 -20 275 -17 237 4
268 12 341 88 78 79 77 72 77 700 l0 555 -24 53 c-30 67 -98 127 -164 147 -75
22 -452 20 -521 -2z m407 -291 c22 -23 22 -23 25 -440 2 -229 0 -432 -3 -450
-12 -63 -31 -72 -160 -72 -133 0 -149 8 -160 82 -3 24 -5 223 -3 443 3 360 5
404 20 427 22 33 39 37 161 34 86 -1 100 -4 120 -24z"/>
<path d="M15204 4997 c-2 -7 -3 -71 -2 -143 l3 -129 143 -3 142 -3 0 -622 c0
-471 3 -626 12 -635 8 -8 55 -12 145 -12 121 0 133 2 143 19 6 13 10 230 10
635 l0 615 143 3 142 3 0 140 0 140 -438 3 c-354 2 -439 0 -443 -11z"/>
<path d="M16277 5003 c-10 -9 -8 -1525 1 -1541 7 -10 102 -12 443 -10 l434 3
3 138 c2 109 0 138 -11 143 -8 3 -139 6 -293 7 l-279 2 0 165 0 165 225 5 225
5 3 120 c4 183 31 164 -231 167 l-222 3 0 170 0 170 290 5 290 5 0 140 0 140
-436 3 c-239 1 -439 -1 -442 -5z"/>
<path d="M17579 4996 c-59 -21 -109 -56 -139 -98 -47 -65 -55 -118 -55 -384 0
-224 1 -243 19 -263 13 -14 109 -50 298 -112 l278 -90 0 -134 c0 -120 -2 -137
-19 -154 -26 -26 -74 -34 -161 -29 -98 5 -113 22 -120 131 l-5 82 -137 3
c-169 3 -163 9 -155 -152 8 -158 37 -231 117 -289 68 -48 138 -59 364 -55 229
4 261 12 334 87 70 72 75 99 80 407 l4 271 -24 27 c-19 21 -75 43 -298 115
l-275 88 -3 104 c-2 57 0 114 3 126 10 40 57 55 162 51 121 -4 133 -15 133
-122 0 -43 5 -77 12 -84 19 -19 262 -16 278 3 9 11 11 49 8 143 -4 103 -9 137
-28 180 -29 67 -96 127 -163 147 -67 20 -454 21 -508 1z"/>
<path d="M13473 3135 c-49 -21 -86 -24 -128 -9 -30 10 -50 11 -85 3 -25 -6
-99 -9 -165 -8 -66 1 -208 -2 -315 -6 -193 -8 -632 -16 -763 -15 -37 1 -73 -3
-80 -7 -6 -4 -41 -9 -77 -9 -36 -1 -126 -7 -200 -13 -276 -22 -305 -23 -345
-12 -31 8 -42 8 -55 -4 -20 -18 -44 -19 -72 -4 -15 8 -27 8 -44 -2 -20 -10
-29 -10 -49 1 -19 10 -28 11 -37 2 -9 -9 -16 -8 -30 5 -10 9 -18 11 -18 6 0
-16 -69 -26 -84 -14 -9 8 -114 11 -317 10 -167 -1 -504 2 -749 6 -516 9 -1139
10 -1698 2 -334 -4 -396 -7 -417 -21 -21 -14 -27 -14 -59 -1 -25 11 -55 13
-108 9 -83 -6 -522 -25 -646 -27 -57 -2 -82 -6 -82 -14 0 -21 37 -33 104 -33
58 0 66 -2 66 -19 0 -24 -38 -34 -79 -20 -24 8 -35 8 -46 -1 -8 -7 -26 -10
-39 -6 -13 3 -106 10 -207 16 -388 22 -449 33 -449 76 0 13 -3 14 -14 5 -14
-12 -30 -139 -20 -164 6 -18 102 -58 191 -81 56 -15 195 -33 535 -70 73 -8
221 -20 328 -26 107 -5 233 -12 280 -15 119 -7 774 -25 895 -25 55 0 121 3
147 6 25 3 55 1 65 -5 28 -14 623 -21 645 -7 14 8 22 7 34 -6 11 -11 23 -14
38 -9 41 15 768 -1 791 -18 12 -9 351 3 381 13 14 5 27 2 39 -10 17 -17 18
-17 31 1 8 11 14 13 14 6 0 -8 9 -11 28 -7 15 3 83 2 152 -2 71 -4 148 -3 177
2 44 8 56 7 71 -8 18 -16 20 -15 35 6 13 19 16 20 16 6 1 -15 11 -18 65 -18
35 0 82 7 105 15 26 9 50 11 64 6 12 -4 33 -4 47 0 14 4 95 8 180 8 85 1 189
6 230 12 41 5 235 12 431 14 196 3 378 8 406 11 28 4 58 2 70 -4 14 -8 23 -8
31 0 13 13 89 21 96 10 3 -4 92 -7 198 -6 106 1 290 1 408 2 118 0 256 1 305
1 50 1 102 -2 117 -8 19 -7 29 -6 41 6 12 13 19 14 30 5 16 -14 192 -18 280
-7 39 5 62 4 72 -5 9 -8 35 -10 77 -6 104 9 130 8 165 -5 21 -8 24 -7 19 6 -4
12 2 15 29 15 26 0 33 -3 29 -15 -7 -18 27 -21 58 -4 15 8 26 8 44 -2 19 -10
35 -10 77 0 38 8 62 9 81 1 35 -13 83 -13 91 1 4 6 14 7 24 2 9 -4 124 -8 256
-10 132 -1 450 -5 708 -8 415 -5 471 -4 501 10 31 15 37 15 71 1 49 -21 82
-20 94 2 8 14 13 15 31 4 17 -10 29 -9 69 4 60 19 348 17 372 -3 11 -9 24 -8
56 7 29 13 43 15 46 7 3 -11 87 -20 157 -17 77 3 111 2 255 -7 113 -8 156 -7
178 2 23 10 37 9 70 -2 29 -10 72 -13 151 -10 61 3 116 6 121 7 6 1 204 0 440
-1 237 -2 441 1 454 5 13 5 41 3 65 -4 35 -10 49 -9 80 4 33 14 40 14 60 1 23
-15 141 -11 376 14 52 6 98 11 103 11 4 0 7 7 7 15 0 10 -10 15 -27 15 l-28 1
24 19 c19 17 21 21 7 26 -22 9 -12 20 25 28 22 4 29 10 27 23 -2 10 -9 17 -16
16 -6 -2 -40 14 -74 35 -46 28 -64 45 -66 63 -6 54 -13 67 -41 79 -27 11 -48
37 -38 47 3 2 29 6 58 9 81 8 99 13 99 28 0 7 -12 19 -27 27 -22 11 -90 13
-382 11 -196 -2 -457 1 -581 7 -210 10 -1119 13 -1785 7 -437 -5 -580 -6
-1185 -7 -305 0 -561 -4 -569 -8 -8 -5 -28 -5 -46 0 -17 5 -60 9 -96 8 -35 0
-140 3 -234 6 -201 7 -173 7 -405 2 -142 -4 -191 -1 -211 9 -33 16 -342 11
-381 -6 -20 -10 -31 -9 -55 3 -27 14 -31 14 -45 0 -15 -14 -18 -14 -39 1 -28
19 -44 20 -86 1z m817 -66 c75 -7 183 -9 272 -4 l147 7 7 -26 c14 -55 -20 -79
-71 -51 -28 14 -46 16 -112 10 -177 -17 -672 -7 -697 14 -11 10 -23 10 -55 0
-32 -10 -65 -10 -148 -1 -89 10 -110 10 -128 -2 -16 -11 -42 -13 -102 -9 -53
4 -87 2 -102 -7 -19 -10 -25 -10 -31 0 -4 7 -17 10 -28 8 -12 -3 -30 1 -42 9
-21 15 -22 14 -15 -6 7 -24 3 -25 -43 -11 -23 6 -39 6 -52 -2 -14 -9 -24 -8
-44 5 -27 18 -81 23 -71 7 8 -13 -11 -13 -36 1 -16 8 -25 7 -40 -6 -17 -16
-42 -17 -263 -12 -195 4 -249 2 -263 -9 -16 -11 -20 -10 -35 9 l-17 22 -30
-23 c-41 -30 -51 -28 -51 12 0 32 2 34 43 40 23 3 138 13 255 21 169 13 237
14 330 5 78 -7 148 -7 207 -1 50 5 270 8 490 7 220 -1 414 1 430 4 35 7 122 4
295 -11z m868 -25 c50 -3 92 -10 92 -15 0 -5 -18 -18 -41 -29 -38 -20 -51 -21
-197 -14 -87 3 -178 7 -204 8 -45 1 -48 2 -48 28 0 26 2 27 26 18 22 -9 25 -8
20 5 -6 17 60 17 352 -1z m1520 1 c6 -3 12 -14 12 -26 0 -19 -4 -21 -30 -15
-17 3 -41 0 -55 -6 -20 -9 -28 -8 -43 5 -23 21 -33 22 -26 2 5 -12 -4 -15 -45
-15 -39 0 -51 4 -51 15 0 8 -5 15 -12 15 -23 0 9 22 42 29 32 6 184 3 208 -4z
m132 -14 c5 -11 10 -22 10 -25 0 -10 -27 -6 -61 8 l-34 15 25 10 c37 15 48 13
60 -8z m-7595 -26 c14 -13 25 -31 25 -40 0 -17 -16 -20 -25 -5 -9 14 -54 12
-108 -4 -39 -12 -47 -12 -47 -1 0 13 -35 19 -159 28 -33 2 -34 3 -17 20 20 20
119 23 207 7 44 -8 56 -8 68 5 21 20 28 19 56 -10z m3012 8 c3 -8 -14 -15 -47
-19 -29 -4 -54 -13 -57 -20 -4 -10 -10 -10 -30 -1 -19 8 -29 8 -45 -2 -17 -11
-22 -10 -29 1 -6 10 -11 9 -23 -7 -13 -18 -16 -19 -33 -4 -30 27 -58 31 -104
13 -24 -9 -53 -16 -64 -16 -11 0 -42 -7 -69 -14 -27 -8 -52 -11 -57 -8 -4 2
-11 21 -15 40 -6 34 -7 35 -18 12 -22 -45 -89 -56 -358 -58 -155 -2 -255 2
-277 9 -29 9 -39 8 -65 -8 -31 -19 -32 -19 -83 4 -52 23 -68 47 -39 58 22 9
531 12 544 3 6 -4 22 -1 34 6 17 9 114 12 361 14 186 1 341 5 345 8 11 12 125
2 129 -11z m-4497 -18 c0 -9 6 -12 15 -9 9 4 15 0 15 -10 0 -17 -42 -22 -75
-10 -14 6 -13 9 6 30 23 24 39 24 39 -1z m1589 16 c8 -5 24 -6 36 -1 16 6 27
4 38 -7 14 -14 22 -15 55 -5 23 7 65 9 105 5 63 -6 67 -7 67 -31 0 -20 -4 -23
-22 -18 -66 18 -68 18 -68 3 0 -14 -5 -14 -47 0 -34 12 -53 13 -72 6 -15 -5
-38 -6 -51 -2 -14 4 -47 10 -75 14 l-50 7 24 19 c26 21 39 23 60 10z m1256
-20 c11 1 57 3 102 3 90 1 123 -13 82 -34 -28 -15 -171 -25 -233 -16 -44 7
-46 8 -46 42 l0 34 38 -16 c20 -9 46 -15 57 -13z m-592 -9 c20 -21 13 -32 -19
-32 -37 0 -52 10 -47 31 7 24 44 25 66 1z m281 -1 c17 -7 16 -9 -11 -29 -40
-28 -43 -28 -43 8 0 31 14 37 54 21z m-2684 -10 c0 -4 -24 -13 -52 -19 -45 -9
-59 -8 -93 8 l-40 18 93 1 c50 1 92 -3 92 -8z"/>
<path d="M6333 3018 c5 -16 45 -20 226 -23 122 -2 146 -5 157 -19 11 -16 13
-16 19 3 5 18 12 20 51 14 51 -7 56 0 14 22 -39 20 -474 23 -467 3z"/>
<path d="M2485 2123 c-11 -2 -54 -15 -95 -28 -41 -12 -97 -26 -125 -30 -64 -9
-148 -30 -255 -65 -318 -103 -573 -262 -820 -509 -83 -84 -200 -221 -200 -235
0 -4 -15 -26 -32 -49 -18 -23 -38 -51 -44 -62 -27 -49 -39 -70 -44 -75 -10 -9
-120 -239 -120 -251 0 -6 -6 -25 -14 -42 -36 -83 -70 -204 -87 -312 -6 -33
-15 -73 -20 -90 -6 -16 -13 -105 -16 -197 l-6 -168 2818 0 2818 0 -6 153 c-3
83 -11 179 -17 212 -39 205 -96 394 -155 519 -14 29 -25 56 -25 60 0 14 -124
223 -169 284 -112 155 -237 288 -366 394 -39 32 -77 63 -85 70 -9 7 -42 31
-75 52 -33 22 -71 47 -85 56 -55 37 -300 150 -380 175 -47 15 -94 31 -105 35
-33 13 -194 50 -217 50 -12 0 -53 11 -92 24 -39 14 -92 28 -118 31 -55 8 -54
12 -38 -95 25 -175 26 -171 -72 -276 -92 -98 -227 -178 -383 -227 -75 -23
-161 -42 -167 -36 -2 1 -13 -3 -26 -10 -34 -18 -356 -16 -462 3 -173 32 -240
56 -417 149 -60 31 -197 171 -228 232 -28 56 -28 57 -17 150 7 52 12 99 12
104 0 11 -27 13 -65 4z m2710 -1415 c14 -6 25 -15 25 -20 0 -4 5 -8 10 -8 6 0
40 -25 75 -55 36 -30 70 -55 75 -55 6 0 10 -4 10 -9 0 -13 -33 -18 -339 -46
-91 -8 -166 -13 -168 -11 -13 13 16 62 56 94 142 116 194 138 256 110z"/>
<path d="M6203 2099 c15 -9 17 -28 17 -167 0 -179 10 -212 73 -245 49 -25 156
-25 200 0 61 36 72 69 75 248 3 107 8 162 15 167 7 4 -17 8 -52 8 -54 0 -62
-2 -51 -14 8 -11 11 -59 8 -166 -3 -146 -4 -153 -27 -171 -14 -11 -39 -19 -61
-19 -88 0 -100 24 -100 208 0 94 4 142 12 150 9 9 -3 12 -57 12 -53 -1 -66 -3
-52 -11z"/>
<path d="M7605 2040 l-130 -5 0 -183 0 -182 122 0 c67 0 128 -3 137 -6 13 -5
16 2 16 40 0 25 -4 46 -10 46 -5 0 -10 -4 -10 -10 0 -6 -35 -10 -85 -10 l-85
0 0 50 0 50 54 0 c34 0 56 -5 59 -12 3 -7 5 12 5 42 0 30 -2 49 -5 43 -3 -8
-25 -13 -59 -13 l-54 0 0 45 0 45 85 0 c50 0 85 -4 85 -10 0 -5 5 -10 10 -10
6 0 10 20 10 45 0 25 -3 44 -7 43 -5 -1 -66 -5 -138 -8z"/>
<path d="M9825 2043 l-130 -4 0 -184 0 -184 133 -3 132 -3 -1 45 c0 25 -3 39
-6 33 -3 -9 -32 -13 -94 -13 l-89 0 0 50 0 50 59 0 c38 0 61 -4 64 -12 3 -7 6
12 6 42 1 42 -2 51 -11 42 -7 -7 -36 -12 -65 -12 l-53 0 0 45 0 45 89 0 c62 0
91 -4 94 -12 3 -7 6 8 6 35 1 26 0 46 -1 45 -2 -1 -61 -4 -133 -5z"/>
<path d="M10945 2043 l-130 -4 0 -184 0 -184 133 -3 132 -3 -1 45 c0 25 -3 39
-6 33 -3 -9 -32 -13 -94 -13 l-89 0 0 50 0 50 59 0 c38 0 61 -4 64 -12 3 -7 6
12 6 42 1 42 -2 51 -11 42 -7 -7 -36 -12 -65 -12 l-53 0 0 45 0 45 89 0 c62 0
91 -4 94 -12 3 -7 6 8 6 35 1 26 0 46 -1 45 -2 -1 -61 -4 -133 -5z"/>
<path d="M11963 2040 c-114 -4 -131 -7 -123 -20 13 -20 13 -306 0 -331 -10
-18 -6 -19 114 -19 68 0 131 -3 140 -6 13 -5 16 2 16 42 0 37 -3 45 -12 36 -7
-7 -44 -12 -95 -12 l-83 0 0 50 0 50 53 0 c29 0 58 -5 65 -12 9 -9 12 0 12 42
0 42 -3 51 -12 42 -7 -7 -36 -12 -65 -12 l-53 0 0 45 0 45 83 0 c51 0 88 -5
95 -12 9 -9 12 -2 12 35 0 26 -3 46 -7 45 -5 -1 -67 -5 -140 -8z"/>
<path d="M13135 2040 l-130 -5 0 -183 0 -182 122 0 c67 0 128 -3 137 -6 13 -5
16 2 16 40 0 25 -4 46 -10 46 -5 0 -10 -4 -10 -10 0 -6 -35 -10 -85 -10 l-85
0 0 50 0 50 54 0 c34 0 56 -5 59 -12 3 -7 5 12 5 42 0 30 -2 49 -5 43 -3 -8
-25 -13 -59 -13 l-54 0 0 45 0 45 85 0 c50 0 85 -4 85 -10 0 -5 5 -10 10 -10
6 0 10 20 10 45 0 25 -3 44 -7 43 -5 -1 -66 -5 -138 -8z"/>
<path d="M15130 2040 c-74 -3 -129 -9 -122 -13 17 -11 17 -328 0 -345 -9 -9
16 -12 114 -12 70 0 133 -3 142 -6 13 -5 16 2 16 42 0 37 -3 45 -12 36 -7 -7
-44 -12 -95 -12 l-83 0 0 50 0 50 53 0 c29 0 58 -5 65 -12 9 -9 12 0 12 42 0
42 -3 51 -12 42 -7 -7 -36 -12 -65 -12 l-53 0 0 45 0 45 83 0 c51 0 88 -5 95
-12 9 -9 12 -2 12 35 0 26 -3 46 -7 45 -5 -1 -69 -5 -143 -8z"/>
<path d="M16390 2009 l0 -36 56 5 55 5 -3 -157 -3 -156 48 0 c44 0 47 1 37 19
-5 11 -10 81 -10 155 l0 136 43 0 c24 0 48 -5 55 -12 9 -9 12 -2 12 33 l0 44
-145 0 -145 0 0 -36z"/>
<path d="M16880 2040 c-74 -3 -129 -9 -122 -13 17 -11 17 -328 0 -345 -9 -9
17 -12 118 -12 88 0 134 -4 142 -12 9 -9 12 0 12 42 0 42 -3 51 -12 42 -7 -7
-44 -12 -95 -12 l-83 0 0 50 0 50 53 0 c29 0 58 -5 65 -12 9 -9 12 0 12 42 0
42 -3 51 -12 42 -7 -7 -36 -12 -65 -12 l-53 0 0 45 0 45 83 0 c51 0 88 -5 95
-12 9 -9 12 -2 12 35 0 26 -3 46 -7 45 -5 -1 -69 -5 -143 -8z"/>
<path d="M17680 2010 l0 -35 50 3 51 4 -3 -156 -3 -156 45 0 45 0 -3 156 -3
156 53 -3 53 -3 3 34 3 35 -146 0 -145 0 0 -35z"/>
<path d="M18800 2010 l0 -35 50 3 51 4 -3 -156 -3 -156 45 0 45 0 -3 156 -3
156 53 -3 53 -3 3 34 3 35 -146 0 -145 0 0 -35z"/>
<path d="M20033 2040 c-114 -4 -131 -7 -123 -20 13 -20 13 -306 0 -331 -10
-18 -6 -19 114 -19 68 0 131 -3 140 -6 13 -5 16 2 16 42 0 37 -3 45 -12 36 -7
-7 -44 -12 -95 -12 l-83 0 0 50 0 50 53 0 c29 0 58 -5 65 -12 9 -9 12 0 12 40
0 29 -4 52 -10 52 -5 0 -10 -4 -10 -10 0 -5 -25 -10 -55 -10 l-55 0 0 45 0 45
83 0 c51 0 88 -5 95 -12 9 -9 12 -2 12 35 0 26 -3 46 -7 45 -5 -1 -67 -5 -140
-8z"/>
<path d="M6680 2021 c5 -11 10 -84 10 -166 0 -82 -5 -155 -10 -166 -10 -18 -7
-19 41 -19 43 0 50 2 40 14 -8 9 -11 52 -9 127 l3 113 73 -110 c39 -61 72
-118 72 -127 0 -14 9 -17 48 -17 l47 0 0 185 0 185 -49 0 c-40 0 -47 -2 -37
-14 8 -9 11 -52 9 -124 l-3 -111 -68 110 c-39 61 -66 116 -63 124 4 12 -6 15
-55 15 -56 0 -59 -1 -49 -19z"/>
<path d="M7069 2026 c17 -20 119 -329 114 -343 -3 -9 10 -13 46 -13 42 0 51 3
51 17 0 23 100 324 113 341 7 9 -2 12 -41 12 -44 0 -50 -2 -45 -18 6 -26 -68
-258 -77 -241 -18 34 -71 231 -66 244 4 12 -5 15 -51 15 -46 0 -54 -2 -44 -14z"/>
<path d="M7858 2028 c8 -8 12 -61 12 -173 0 -112 -4 -165 -12 -173 -9 -9 1
-12 45 -12 54 0 57 1 47 19 -5 11 -10 84 -10 166 0 82 5 155 10 166 10 18 7
19 -47 19 -44 0 -54 -3 -45 -12z"/>
<path d="M8074 2024 c13 -13 16 -43 16 -169 0 -126 -3 -156 -16 -169 -14 -15
-4 -16 109 -16 69 0 132 -3 141 -6 13 -5 16 2 16 42 0 37 -3 45 -12 36 -7 -7
-43 -12 -90 -12 l-78 0 0 143 c0 98 4 147 12 155 9 9 -2 12 -51 12 -57 0 -61
-1 -47 -16z"/>
<path d="M8428 1869 c2 -121 0 -174 -9 -185 -10 -12 -3 -14 42 -14 l54 0 0
185 0 185 -45 0 -45 0 3 -171z"/>
<path d="M8640 2021 c5 -11 10 -84 10 -166 0 -82 -5 -155 -10 -166 -10 -18 -7
-19 41 -19 43 0 50 2 40 14 -8 9 -11 52 -9 127 l3 113 73 -110 c39 -61 72
-118 72 -127 0 -14 9 -17 48 -17 l47 0 0 185 0 185 -49 0 c-40 0 -47 -2 -37
-14 8 -9 11 -52 9 -124 l-3 -111 -68 110 c-39 61 -66 116 -63 124 4 12 -6 15
-55 15 -56 0 -59 -1 -49 -19z"/>
<path d="M9135 2024 c-46 -24 -63 -43 -81 -90 -35 -93 2 -211 79 -247 52 -25
143 -22 191 6 l39 22 1 73 1 72 -62 0 c-34 0 -68 3 -77 6 -13 5 -16 -2 -16
-36 0 -36 2 -41 14 -31 24 20 70 10 74 -17 11 -76 -121 -76 -168 0 -33 55 -21
138 28 182 37 33 142 19 142 -19 0 -26 16 -16 38 24 24 41 27 56 13 47 -5 -3
-25 1 -45 9 -46 19 -133 19 -171 -1z"/>
<path d="M10096 1958 c29 -46 54 -90 54 -99 0 -8 -27 -54 -59 -102 l-60 -87
50 0 c40 0 49 3 49 18 0 9 14 39 31 66 l31 49 33 -53 c18 -29 31 -59 28 -67
-4 -10 9 -13 52 -13 54 0 57 1 43 18 -22 25 -108 167 -108 178 0 5 24 46 54
92 l54 82 -60 0 c-52 0 -59 -2 -48 -15 10 -12 7 -23 -15 -61 l-27 -46 -28 47
c-16 27 -26 54 -23 62 4 10 -8 13 -50 13 l-56 0 55 -82z"/>
<path d="M10435 1855 l0 -185 48 0 c45 0 47 1 37 20 -6 11 -10 44 -8 73 l3 52
74 6 c67 5 77 8 102 37 21 24 29 43 29 70 0 81 -53 112 -192 112 l-93 0 0
-185z m196 115 c24 -13 26 -62 3 -81 -9 -7 -39 -13 -68 -14 l-51 0 -3 53 -3
52 51 0 c28 0 60 -5 71 -10z"/>
<path d="M11185 1855 l0 -185 45 0 45 0 -3 75 -4 75 31 0 c26 0 36 -8 61 -47
17 -27 33 -60 36 -75 6 -26 10 -28 55 -28 l48 0 -45 72 c-24 40 -44 75 -44 78
0 3 14 11 30 17 74 28 74 149 0 185 -27 14 -60 18 -145 18 l-110 0 0 -185z
m231 100 c33 -51 -5 -85 -97 -85 l-49 0 0 55 0 55 65 0 c57 0 66 -3 81 -25z"/>
<path d="M11618 2028 c17 -17 17 -329 0 -346 -9 -9 1 -12 47 -12 46 0 56 3 47
12 -17 17 -17 329 0 346 9 9 -1 12 -47 12 -46 0 -56 -3 -47 -12z"/>
<path d="M12205 1855 l0 -185 49 0 c40 0 47 2 37 14 -8 9 -11 52 -9 127 l3
113 73 -114 c40 -62 71 -119 68 -126 -4 -11 8 -14 51 -14 44 0 54 3 45 12 -8
8 -12 61 -12 173 0 112 4 165 12 173 9 9 0 12 -41 12 -45 0 -52 -2 -42 -14 8
-9 11 -52 9 -127 l-3 -112 -68 109 c-39 62 -66 117 -63 127 4 15 -4 17 -52 17
l-57 0 0 -185z"/>
<path d="M12710 2033 c-38 -15 -74 -50 -91 -87 -38 -85 -14 -200 52 -247 50
-35 150 -39 202 -6 l39 24 -28 32 c-27 32 -28 33 -36 12 -19 -54 -123 -46
-159 12 -30 48 -23 137 15 176 15 16 40 31 54 34 34 7 92 -17 92 -37 0 -26 14
-18 37 22 l21 38 -36 13 c-41 15 -139 24 -162 14z"/>
<path d="M13418 2024 c-35 -19 -48 -43 -48 -92 0 -58 39 -89 140 -112 83 -19
99 -41 60 -80 -37 -37 -155 -15 -167 31 -5 19 -9 17 -28 -22 l-23 -43 51 -18
c63 -22 148 -23 187 -3 45 23 65 69 51 116 -14 45 -42 65 -123 85 -35 9 -69
21 -75 26 -20 17 -15 56 8 69 32 17 106 5 134 -21 l23 -22 20 38 20 39 -47 12
c-63 17 -150 15 -183 -3z"/>
<path d="M14234 2021 c-17 -10 -42 -34 -55 -53 -21 -28 -24 -45 -24 -115 0
-67 4 -87 21 -110 37 -50 81 -73 141 -73 71 0 118 23 151 73 23 34 27 51 27
112 0 61 -4 78 -27 112 -14 22 -42 47 -61 56 -48 23 -134 22 -173 -2z m154
-64 c29 -27 46 -86 38 -131 -9 -45 -48 -92 -83 -99 -40 -7 -89 16 -107 52 -20
39 -20 113 0 152 29 57 103 70 152 26z"/>
<path d="M14585 1855 l0 -185 49 0 c40 0 47 2 37 14 -8 9 -11 52 -9 127 l3
113 73 -114 c40 -62 71 -119 68 -126 -4 -11 8 -14 51 -14 44 0 54 3 45 12 -8
8 -12 61 -12 173 0 112 4 165 12 173 9 9 0 12 -41 12 -45 0 -52 -2 -42 -14 8
-9 11 -52 9 -127 l-3 -112 -68 109 c-39 62 -66 117 -63 127 4 15 -4 17 -52 17
l-57 0 0 -185z"/>
<path d="M15590 2021 c5 -11 10 -84 10 -166 0 -82 -5 -155 -10 -166 -10 -18
-7 -19 41 -19 43 0 50 2 40 14 -8 9 -11 52 -9 127 l3 114 72 -110 c40 -60 73
-118 73 -127 0 -15 9 -18 48 -18 l47 0 0 185 0 185 -49 0 c-40 0 -47 -2 -37
-14 8 -9 11 -52 9 -124 l-3 -111 -68 110 c-39 61 -66 116 -63 124 4 12 -6 15
-55 15 -56 0 -59 -1 -49 -19z"/>
<path d="M16100 2033 c-98 -40 -140 -170 -87 -273 32 -65 75 -90 152 -90 77 0
120 25 153 90 42 84 19 203 -51 254 -28 20 -134 33 -167 19z m128 -67 c5 -3
17 -21 26 -40 52 -109 -29 -234 -126 -193 -91 38 -90 214 2 243 31 10 72 6 98
-10z"/>
<path d="M17420 2021 c0 -10 -26 -93 -59 -185 l-58 -166 43 0 c34 0 42 3 38
15 -3 8 -1 30 6 50 l12 35 62 0 63 0 11 -36 c6 -20 8 -42 5 -50 -4 -11 6 -14
45 -14 l51 0 -15 36 c-37 88 -110 310 -107 322 3 8 -10 12 -46 12 -43 0 -51
-3 -51 -19z m84 -173 c6 -27 5 -28 -39 -28 -25 0 -45 3 -45 6 0 3 10 40 22 82
l22 76 17 -54 c9 -30 19 -67 23 -82z"/>
<path d="M18330 2021 c0 -10 -26 -93 -59 -185 l-58 -166 43 0 c34 0 42 3 38
15 -3 8 -1 30 6 50 l12 35 62 0 63 0 11 -36 c6 -20 8 -42 5 -50 -4 -11 6 -14
45 -14 l51 0 -15 36 c-37 88 -110 310 -107 322 3 8 -10 12 -46 12 -43 0 -51
-3 -51 -19z m84 -175 c6 -25 5 -26 -39 -26 -25 0 -45 3 -45 6 0 3 10 40 22 82
l22 76 17 -56 c9 -30 19 -67 23 -82z"/>
<path d="M19175 1855 l0 -185 55 0 c42 0 51 3 42 12 -17 17 -17 329 0 346 9 9
0 12 -42 12 l-55 0 0 -185z"/>
<path d="M19395 1855 l0 -185 44 0 c36 0 41 2 32 14 -8 9 -11 56 -9 142 l3
129 56 -140 c31 -76 60 -140 65 -142 5 -1 37 64 71 145 l63 147 0 -135 c0 -93
-4 -140 -12 -148 -9 -9 0 -12 40 -12 43 0 51 3 45 14 -4 8 -6 91 -3 185 l5
171 -62 0 c-56 0 -61 -2 -56 -20 5 -19 -77 -223 -86 -214 -3 2 -24 51 -47 107
-30 73 -39 105 -32 114 8 10 -3 13 -53 13 l-64 0 0 -185z"/>
<path d="M13757 1762 c-32 -35 -11 -92 34 -92 30 0 23 -35 -12 -64 -17 -14
-35 -26 -40 -26 -5 0 -9 -7 -9 -14 0 -23 51 -1 89 38 40 41 53 92 36 133 -19
46 -68 58 -98 25z"/>
<path d="M20290 1760 c-24 -24 -25 -38 -4 -68 29 -42 104 -17 104 35 0 20 -38
53 -60 53 -11 0 -29 -9 -40 -20z"/>
</g>
</svg>
